mtllib materials.mtl
v 0.03951645 -0.1302674 0.03966977
v 0.03878546 -0.1302598 0.01846918
v 0.05702305 -0.1310969 0.02158399
v 0.03856754 -0.1514718 0.01846905
v 0.04750609 -0.151071 0.008126572
v 0.04822588 -0.12987 0.008113936
v 0.03929853 -0.1514795 0.03966963
v 0.05648994 -0.1523021 0.02135211
v 0.04295731 -0.1525164 -0.08499108
v 0.04431629 -0.1313641 -0.08584671
v 0.05472755 -0.1318923 -0.08553673
v 0.0527246 -0.1529911 -0.08462523
v 0.0288384 -0.151248 -0.08018358
v 0.03230238 -0.1303867 -0.08185823
v 0.03614044 -0.1309519 -0.1026156
v 0.03499556 -0.152121 -0.1033625
v 0.06008387 0.197406 0.0123979
v 0.04195237 0.1938509 0.01367307
v 0.04217029 0.2150629 0.01366566
v 0.05164695 0.1837268 0.0138257
v 0.05041456 0.1837277 -0.007351682
v 0.04122138 0.1938511 -0.007527545
v 0.05904365 0.1971669 -0.008788437
v 0.04143929 0.215063 -0.007534951
v 0.04808378 0.09052759 -0.008765474
v 0.04997444 0.08969957 0.01234704
v 0.06035924 0.09026134 0.01156756
v 0.05782533 0.09112966 -0.009475812
v 0.03388762 0.09499198 -0.007152081
v 0.03789473 0.09339601 0.01361799
v 0.04221869 0.07273775 0.0129426
v 0.04058051 0.07196885 -0.008193299
v 0.03979588 0.2150041 -0.05516951
v 0.03957796 0.193792 -0.05516221
v 0.05775428 0.1973473 -0.05513881
v 0.04030895 0.1937918 -0.03396167
v 0.04946804 0.1836686 -0.03477041
v 0.04923916 0.1836681 -0.05598237
v 0.04052687 0.2150039 -0.03396894
v 0.05817556 0.1971079 -0.03393115
v 0.04724121 0.09046847 -0.0332009
v 0.04767323 0.0896408 -0.05439357
v 0.05808711 0.09020269 -0.05433117
v 0.05700827 0.09107059 -0.0331632
v 0.03296781 0.09493273 -0.03383268
v 0.03553486 0.09333724 -0.05482946
v 0.03989482 0.07267898 -0.05445381
v 0.03971624 0.07190973 -0.03325529
v 0.03841567 -0.2299003 0.03744881
v 0.03768396 -0.229982 0.0162484
v 0.05592179 -0.2308035 0.01936603
v 0.03746867 -0.2511939 0.01633756
v 0.04640698 -0.2508354 0.005993158
v 0.04712391 -0.2296346 0.005891249
v 0.03820038 -0.2511122 0.03753796
v 0.05539131 -0.2520096 0.01922342
v 0.04185486 -0.2526733 -0.08711742
v 0.04321098 -0.2315246 -0.08806212
v 0.05362225 -0.2320501 -0.08775027
v 0.05162215 -0.2531451 -0.08674993
v 0.02773595 -0.2513866 -0.08231477
v 0.03119707 -0.2305321 -0.08407734
v 0.03503442 -0.2311841 -0.1048322
v 0.03389239 -0.2523564 -0.10549
v 0.01127362 -0.5122817 0.214983
v -0.3125309 -0.5122814 0.2261485
v -0.3125305 -0.2160113 0.2261505
v 0.01127386 -0.2160116 0.2149851
v -0.004935503 -0.5122786 -0.2550873
v -0.004935265 -0.2160085 -0.2550853
v -0.3287395 -0.2160081 -0.2439199
v -0.3287399 -0.5122783 -0.2439218
v 0.01127458 0.4574016 0.2149895
v -0.3125298 0.4574019 0.2261549
v -0.3287388 0.457405 -0.2439154
v -0.004934311 0.4574048 -0.2550808
v 0.003170252 0.4574031 -0.02004568
v 0.03383946 -0.216601 0.1907811
v 0.0437088 -0.2293095 0.190781
v 0.04078388 -0.5137973 0.1907792
v 0.03349066 0.458919 -0.02074671
v 0.04394674 0.4589189 -0.007525966
v 0.05078459 0.4589176 0.190785
v -0.004935026 -0.1077037 -0.2550846
v 0.03036833 -0.1079549 -0.2322818
v 0.03619671 0.4589204 -0.2322784
v 0.02619576 -0.5137945 -0.2322842
v 0.02910399 -0.2309397 -0.2322826
v 0.04495645 -0.1079577 0.1907817
v 0.03811836 -0.1079563 -0.007529333
v 0.0112741 -0.1077069 0.2149857
v -0.3125304 -0.1077066 0.2261512
v -0.3287394 -0.1077034 -0.2439191
v 0.01925135 -0.2165982 -0.2322825
v 0.02935696 -0.2063165 -0.2322824
v 0.03014183 -0.1299724 -0.232282
v 0.02024794 -0.1196584 -0.2322819
v 0.04397511 -0.2034177 0.1907812
v 0.03483605 -0.1196736 0.1907817
v 0.04472518 -0.1304572 0.1907816
v 0.04303455 0.4589191 -0.03396745
v 0.03720665 -0.1079561 -0.03397082
v 0.02766252 -0.1079562 -0.02075008
vn 0.04606331 0.9989378 -0.001227642
vn -0.7479592 0.01634476 -0.6635435
vn -0.04241876 -0.9988123 -0.02397264
vn 0.7233813 -0.01658699 0.6902496
vn -0.169736 -0.9852074 0.02358492
vn -0.9993534 0.01027126 0.03445907
vn -0.9977706 0.04988743 0.04432917
vn 0.1540796 0.9880012 -0.01063832
vn 0.9990694 -0.02473613 -0.03533547
vn 0.05229853 0.9927385 -0.1083288
vn -0.04884234 -0.9987727 0.008227994
vn 0.0511982 0.9985262 -0.01800798
vn 0.3205003 0.02024194 0.9470322
vn 0.06575756 0.9978072 -0.007534202
vn 0.6708883 -0.09545509 -0.7353893
vn -0.97198 0.1466495 -0.183709
vn -0.06921727 -0.9974173 0.01917821
vn 0.7259488 -0.01500078 -0.6875852
vn 0.9952288 -0.09536539 -0.02062039
vn 0.03405603 0.9970647 0.06857316
vn -0.9640934 0.06125971 -0.2584012
vn 0.07022801 -0.0003733767 0.9975309
vn -0.7310889 -0.6814418 0.03385404
vn -0.06597167 -0.02472969 -0.9975151
vn 0.7058723 0.7075473 -0.033483
vn -0.1940333 0.01973064 -0.9807965
vn -0.9993536 0.01027723 0.03444922
vn -0.997052 0.02017436 0.074029
vn 0.1781403 -0.007167585 0.983979
vn 0.9987408 -0.01115874 -0.04891094
vn 0.07890043 -0.1072826 0.9910929
vn -0.07317341 0.007305752 -0.9972925
vn 0.0757544 -0.01702561 0.9969812
vn 0.2979135 0.9545004 0.01328886
vn 0.09003643 -0.006202287 0.9959192
vn 0.6859602 -0.7189259 -0.1122689
vn -0.9634235 -0.2072029 0.1699478
vn -0.09376618 0.01776066 -0.9954358
vn 0.741782 -0.6698226 -0.03312436
vn 0.9928386 0.003477494 -0.1194135
vn 0.05649582 0.06911532 0.9960077
vn -0.955801 -0.2816623 0.08432603
vn 0.001357678 -0.0003582948 -0.999999
vn -0.7316797 -0.6814474 0.0165625
vn 0.002885842 -0.02474647 0.9996896
vn 0.7064988 0.7075511 -0.01519914
vn -0.126025 0.01971386 0.9918312
vn -0.9993535 0.01027082 0.03445525
vn -0.9997833 0.02016658 -0.005183796
vn 0.1099509 -0.007150476 -0.9939113
vn 0.9997379 -0.01115027 -0.01999289
vn 0.01045158 -0.1072757 -0.9941744
vn -0.004309753 0.007289327 0.9999642
vn 0.006910057 -0.0170094 -0.9998314
vn 0.2962832 0.9545033 -0.03376105
vn 0.0212295 -0.0061863 -0.9997555
vn 0.6920701 -0.7189209 0.06474475
vn -0.97284 -0.2072046 -0.1031931
vn -0.02498371 0.0177431 0.9995304
vn 0.7423054 -0.6698187 -0.01805118
vn 0.9987053 0.003484933 0.05074974
vn -0.01223794 0.06913205 -0.9975325
vn -0.9593387 -0.2816633 -0.01830387
vn 0.04592622 0.99893 -0.00543357
vn -0.7479858 0.01344935 -0.6635785
vn -0.04228261 -0.9989101 -0.01976715
vn 0.7234091 -0.01358255 0.6902862
vn -0.1695999 -0.9851226 0.02773748
vn -0.9993535 0.01027916 0.03445284
vn -0.9977758 0.04993673 0.04415606
vn 0.1539437 0.9879687 -0.01480217
vn 0.9990714 -0.02474762 -0.03526834
vn 0.05215834 0.992281 -0.1125079
vn -0.04870501 -0.9987358 0.01243327
vn 0.05106055 0.9984485 -0.02221222
vn 0.3205324 0.02427154 0.9469265
vn 0.06562039 0.9977757 -0.01173605
vn 0.6708743 -0.09845732 -0.735006
vn -0.9720069 0.1457417 -0.1842882
vn -0.06907973 -0.9973372 0.02337844
vn 0.7259255 -0.01779499 -0.6875431
vn 0.995241 -0.09531484 -0.020256
vn 0.03392177 0.9973491 0.06437494
vn -0.9641113 0.06003942 -0.2586207
vn 0.03446162 -6.877623E-06 0.9994061
vn -0.03446162 6.438983E-06 -0.9994061
vn -1.078649E-06 -1 -6.609353E-06
vn 1.148274E-06 1 6.606952E-06
vn 0.6176271 0.00722168 0.7864379
vn -0.9994061 9.882563E-07 0.03446158
vn -0.03780671 0.9992828 0.002156921
vn 0.5124139 -0.002633144 -0.8587345
vn -0.04989084 -0.9987532 0.001713703
vn 0.9993533 -0.01027468 -0.03445973
vn 0.9993533 -0.01027453 -0.03445879
vn 0.5516805 -0.002845795 0.8340508
vn 0.03446162 -6.581773E-06 0.9994061
vn -0.9994061 7.834104E-07 0.03446161
vn -0.0344616 6.659201E-06 -0.9994061
vn 0.5649286 -0.02894368 -0.824632
vn 0.7569885 -0.6529912 -0.02389439
vn 0.608886 -0.03120617 0.7926438
vn 0.03446162 -6.324472E-06 0.9994061
vn -0.9994061 9.313091E-07 0.03446162
vn -0.0344616 6.911224E-06 -0.9994061
vn 0.5753778 0.006737444 -0.8178599
vn 0.8107761 -0.008339032 0.5852969
vn -0.03783863 0.9992838 0.0004641851
vn 0.7843223 -0.00806023 -0.6203013
vn 0.9993533 -0.01027432 -0.03445939
vn 0.7663471 -0.6418825 -0.02643916
vn 0.7292446 0.6838059 -0.02473767
vn 0.8076965 0.5888849 -0.02899964
vn 0.9993532 -0.01027372 -0.03446035
vt -0.05374324 0.2011718
vt -0.0517268 0.2018305
vt -0.05264577 0.2034385
vt 0.00431556 0.1749885
vt 0.006170328 0.1739592
vt 0.006790515 0.1751779
vt 0.004952609 0.176237
vt 0.05219783 0.202333
vt 0.05420591 0.2016513
vt 0.05310252 0.203909
vt 0.05154451 0.2035332
vt -0.006469938 0.1772014
vt -0.004606921 0.1782157
vt -0.005867637 0.1803958
vt -0.007728261 0.1793772
vt 0.04270495 0.1930557
vt 0.05156465 0.1901501
vt 0.05312292 0.1905285
vt -0.03194397 0.07182418
vt -0.03015104 0.07295794
vt -0.03128479 0.07475086
vt -0.03307772 0.07361712
vt -0.02362393 0.08551651
vt -0.02460168 0.08739875
vt -0.03285186 0.08288271
vt -0.03180261 0.08103936
vt -0.04312748 0.1957965
vt -0.05320369 0.1921527
vt -0.05162764 0.1918071
vt 0.02209026 0.08112919
vt 0.03116858 0.07564808
vt 0.03229808 0.0774437
vt -0.03965187 0.2031082
vt -0.03960075 0.2046042
vt -0.0399201 0.2055292
vt 0.05251372 0.2032166
vt 0.04242129 0.2064726
vt 0.04205412 0.2055655
vt -0.05080014 0.2025207
vt -0.04182037 0.205318
vt -0.04219987 0.2062894
vt -0.02132205 0.2208447
vt -0.01959715 0.2220795
vt -0.02022523 0.2231829
vt -0.02207244 0.2221399
vt -0.04209823 0.2027937
vt -0.0402814 0.2038699
vt -0.04252467 0.2050309
vt -0.04213745 0.2040627
vt 0.04162508 0.157504
vt 0.04491622 0.1573922
vt 0.04361124 0.1590647
vt -0.01463915 0.1272638
vt -0.01628206 0.1259371
vt -0.01508733 0.1241842
vt 0.04234015 0.2045267
vt 0.03997621 0.2034906
vt 0.041948 0.2021226
vt 0.04172135 0.1392117
vt 0.04297379 0.1374995
vt 0.04501188 0.1390831
vt 0.03416767 0.09286346
vt 0.0248056 0.09807493
vt 0.02383661 0.09618785
vt -0.05273274 0.2033112
vt -0.05211889 0.2045714
vt -0.05370058 0.2048902
vt -0.007807815 0.1209939
vt -0.006124257 0.1227041
vt -0.007717627 0.1241046
vt 0.005184744 0.2409978
vt 0.005663611 0.2392087
vt 0.007559731 0.2401599
vt 0.03685466 0.05520555
vt 0.03530677 0.05665597
vt 0.0343211 0.05570813
vt 0.03584537 0.05423291
vt -0.003053103 0.2397318
vt -0.003871347 0.2411098
vt -0.006258368 0.2403244
vt -0.004368677 0.239362
vt -0.03720453 0.06463179
vt -0.03881411 0.06325017
vt -0.0372189 0.06130141
vt -0.03561258 0.06268682
vt -0.008811524 0.2405307
vt -0.007970316 0.2391655
vt 0.0003702741 0.2349976
vt -0.04933506 0.1041975
vt -0.04820193 0.1024042
vt -0.04640861 0.1035374
vt -0.04754173 0.1053307
vt -0.04738786 0.1033195
vt -0.04925229 0.1023082
vt -0.04463092 0.09411659
vt -0.04280667 0.09519869
vt 0.00717094 0.2391009
vt 0.008038275 0.2404614
vt -0.001654095 0.2358936
vt 0.04886409 0.102342
vt 0.04703445 0.1034155
vt 0.04150135 0.09436874
vt 0.000828542 0.235829
vt 0.001178646 0.2349152
vt 0.002179609 0.2338022
vt 0.003576535 0.2353656
vt 0.0039497 0.2362702
vt -0.005534751 0.241014
vt -0.003533133 0.2363245
vt -0.003130434 0.2353624
vt 0.00526839 0.2395957
vt -0.04837034 0.1677441
vt -0.05037648 0.1670547
vt -0.04996801 0.1658525
vt -0.04789957 0.1663232
vt -0.003314995 0.2354454
vt -0.003718544 0.2364069
vt -0.004502089 0.2340056
vt -0.002452526 0.2345138
vt 0.05129535 0.2176074
vt 0.04923039 0.2180931
vt 0.05070864 0.2151505
vt -0.04109002 0.03796466
vt -0.04277099 0.03667071
vt -0.04162263 0.03489858
vt 0.001622797 0.234384
vt 0.003990882 0.2339946
vt 0.003013841 0.2363836
vt 0.0484456 0.2124137
vt 0.04775998 0.2099254
vt 0.04982056 0.2094214
vt 0.04428853 0.08870648
vt 0.04616681 0.08772054
vt 0.05082569 0.09736948
vt 0.001480851 0.2411283
vt 0.0006457539 0.2397477
vt 0.001989168 0.2393474
vt -0.02634396 0.02197422
vt -0.02505079 0.0236558
vt -0.02703275 0.02500904
vt -0.005897754 0.2391084
vt -0.004010519 0.2381397
vt -0.003515114 0.2399242
vt 0.02981769 0.06095875
vt 0.03129856 0.05943998
vt 0.03224272 0.06042914
vt 0.03078659 0.06197165
vt 0.005197591 0.2379713
vt 0.007091787 0.2389248
vt 0.004708496 0.2397214
vt 0.003883783 0.2383472
vt -0.03244427 0.0662115
vt -0.03088038 0.06764463
vt -0.03262904 0.06945693
vt -0.03418954 0.06802012
vt -0.009272219 0.2300761
vt -0.001157893 0.234669
vt -0.0003882795 0.2360758
vt -0.04530262 0.1067368
vt -0.04416948 0.1049435
vt -0.04237616 0.1060766
vt -0.0435093 0.1078699
vt -0.03730522 0.1008332
vt -0.0355193 0.1019774
vt -0.04076419 0.1097845
vt -0.0425049 0.1085726
vt 0.008737234 0.2313056
vt -0.0007605019 0.2362655
vt 5.055042E-05 0.2348706
vt 0.03819193 0.0972832
vt 0.04396735 0.1061772
vt 0.04220968 0.1073649
vt 0.009287328 0.2338214
vt 0.01035977 0.2348657
vt 0.0107696 0.2357543
vt 0.003091817 0.2399737
vt -0.006327438 0.2351017
vt -0.005942051 0.2342022
vt -0.001838813 0.2386343
vt 0.006477186 0.2342406
vt 0.00689828 0.2351947
vt -0.04590888 0.1663864
vt -0.04407583 0.1674541
vt -0.04459771 0.1686115
vt -0.04653455 0.1677462
vt 0.00544998 0.2328029
vt 0.007490429 0.2322593
vt 0.006748559 0.2346739
vt 0.006328435 0.2337194
vt 0.04247847 0.218527
vt 0.04532704 0.2201792
vt 0.04333335 0.2209039
vt -0.01800307 0.0707266
vt -0.01979309 0.07184685
vt -0.02106035 0.07014565
vt -0.00724595 0.2346791
vt -0.008164934 0.2322672
vt -0.005806983 0.2327137
vt 0.04320102 0.2115508
vt 0.04518886 0.2108102
vt 0.04601944 0.2132539
vt 0.03954275 0.109529
vt 0.03280757 0.1011957
vt 0.03450121 0.09991833
vt -0.007292555 0.2374525
vt -0.005961709 0.2378929
vt -0.006837708 0.2392479
vt -0.01861039 0.04388947
vt -0.01651301 0.04272315
vt -0.01558837 0.04463235
vt -0.05352839 0.2015912
vt -0.05151068 0.2022461
vt -0.05242651 0.2038558
vt 0.0132726 0.1701085
vt 0.01512545 0.1690757
vt 0.01574789 0.1702933
vt 0.01391195 0.1713558
vt 0.05221546 0.2026231
vt 0.05422483 0.2019452
vt 0.05311716 0.2042008
vt 0.05155987 0.2038221
vt -0.01546134 0.1723897
vt -0.01360016 0.1734074
vt -0.01486479 0.1755852
vt -0.01672357 0.1745632
vt 0.04271649 0.1946823
vt 0.05158216 0.191795
vt 0.05313963 0.1921766
vt -0.02643839 0.06351878
vt -0.0246407 0.06464497
vt -0.02576689 0.06644265
vt -0.02756458 0.06531646
vt -0.01848075 0.07694466
vt -0.01945095 0.07883082
vt -0.02771917 0.07434789
vt -0.02667732 0.07250036
vt -0.04321096 0.1972297
vt -0.05329451 0.1936062
vt -0.05171915 0.1932574
vt 0.01666919 0.07271065
vt 0.02577005 0.06726705
vt 0.02689212 0.06906731
vt -0.03837685 0.2038858
vt -0.03832252 0.2053817
vt -0.03863987 0.2063074
vt 0.05223504 0.2036844
vt 0.04213624 0.2069205
vt 0.04177086 0.2060127
vt -0.05043368 0.2030411
vt -0.04144839 0.2058206
vt -0.04182596 0.2067928
vt -0.03050668 0.2164758
vt -0.02878333 0.2177128
vt -0.02941277 0.2188154
vt -0.03125868 0.2177701
vt -0.04188427 0.2033962
vt -0.04006533 0.2044688
vt -0.04230631 0.2056342
vt -0.041921 0.2046652
vt 0.0479245 0.1499753
vt 0.05121569 0.1498651
vt 0.04990991 0.1515369
vt -0.007969549 0.1197618
vt -0.009616482 0.1184401
vt -0.008427086 0.1166836
vt 0.04201793 0.2052029
vt 0.03965606 0.2041621
vt 0.04163057 0.2027981
vt 0.0479766 0.1316088
vt 0.04923001 0.1298974
vt 0.0512672 0.1314821
vt 0.02904578 0.08434322
vt 0.01966442 0.08951984
vt 0.01870244 0.08762918
vt -0.05315036 0.2033503
vt -0.05253423 0.2046094
vt -0.05411534 0.2049311
vt -0.0002309808 0.1142422
vt 0.001457621 0.1159475
vt -0.0001316049 0.1173526
vt -0.05684629 0.20425
vt -0.04249141 0.1752038
vt -0.01593098 0.1883303
vt -0.03028585 0.2173764
vt 0.0568463 0.2042499
vt 0.03028587 0.2173764
vt 0.01593099 0.1883303
vt 0.04249142 0.1752038
vt 0.06903409 0.196616
vt 0.02422048 0.2108998
vt 0.01438116 0.1800303
vt 0.05919477 0.1657465
vt -0.06903408 0.196616
vt -0.05919477 0.1657465
vt -0.01438116 0.1800303
vt -0.02422048 0.2108998
vt -0.04662729 0.2037579
vt -0.0382855 0.1646476
vt -0.01172428 0.1777707
vt -0.01322213 0.1806776
vt -0.01470924 0.1808086
vt -0.04011109 0.1680018
vt -0.02652256 0.02993489
vt 0.01300464 0.05542781
vt -0.003053181 0.08032574
vt -0.04258038 0.0548328
vt -0.06949138 0.2017648
vt -0.04705072 0.2087996
vt -0.04799177 0.2116865
vt -0.04958571 0.2122335
vt -0.06852002 0.2062978
vt -0.01867638 0.2043664
vt 0.02668118 0.1706596
vt 0.02920685 0.1740156
vt -0.01599466 0.2082298
vt 0.02514489 0.2085853
vt 0.06984749 0.1939577
vt 0.06858947 0.1975642
vt 0.02835712 0.2107291
vt 0.02536143 0.03312377
vt 0.04056677 0.05716991
vt 0.004692976 0.07964341
vt -0.01042507 0.0557353
vt 0.0470527 0.0674271
vt 0.07735117 0.1153418
vt 0.06057627 0.125941
vt 0.0302778 0.07802628
vt -0.003947045 0.1919786
vt 0.04688657 0.2166646
vt 0.04500049 0.2208964
vt -0.00578053 0.1956957
vt -0.006221543 0.1931288
vt 0.04444009 0.2181663
vt 0.0300852 0.2472124
vt -0.02057643 0.2221749
vt -0.008923291 0.08942739
vt -0.03955214 0.1369179
vt -0.07907934 0.111425
vt -0.04845049 0.06393446
vt 0.02057642 0.2221749
vt -0.03008521 0.2472124
vt -0.04444009 0.2181663
vt 0.00622154 0.1931288
vt 0.02771671 0.1640912
vt 0.03599799 0.1571183
vt 0.03816969 0.1595829
vt 0.03790786 0.1608933
vt 0.03211109 0.1658588
vt 0.03080911 0.1658881
vt 0.03043931 0.1672909
vt 0.05973497 0.1802682
vt 0.06026176 0.1818427
vt 0.01977606 0.1942099
vt 0.01931565 0.192847
vt -0.009524046 0.1810535
vt 0.0001405346 0.1859301
vt -0.001745668 0.1896217
vt -0.00244677 0.188369
vt -0.003745549 0.1885921
vt -0.01023066 0.1852532
vt -0.01106219 0.1839334
vt -0.01593101 0.1883303
vt -0.006221558 0.1931288
vt -0.02057644 0.2221749
vt -0.03028589 0.2173764
vt -0.003053187 0.08032572
vt -0.008923297 0.08942742
vt -0.04845049 0.06393449
vt -0.04258038 0.05483278
vt 0.03028586 0.2173764
vt 0.02057641 0.2221749
vt 0.006221536 0.1931288
vt 0.01593098 0.1883303
vt 0.03581376 0.1528123
vt 0.05886991 0.1342076
vt 0.06141036 0.1371154
vt 0.03954843 0.155062
vt 0.03792334 0.1553379
vt 0.04784402 0.1930613
vt 0.04702889 0.1944735
vt -0.001898111 0.1658385
vt -0.001082975 0.1644263
vt -0.04711385 0.2087637
vt -0.02466836 0.2157831
vt -0.02818297 0.2189116
vt -0.04712135 0.212989
vt -0.04805297 0.2116513
vt 0.01702867 0.1776017
vt 0.01562805 0.1766639
vt 0.04686728 0.1293572
vt 0.04826789 0.130295
vt 0.05833962 0.1273541
vt 0.04156471 0.1379533
vt 0.01126626 0.09003858
vt 0.02804118 0.07943942
vt 0.06187942 0.1856803
vt 0.06237395 0.1871472
vt 0.04343284 0.1930611
vt 0.041946 0.1928533
vt 0.04090736 0.1938496
vt 0.02196624 0.1997635
vt 0.02147199 0.1982975
vt -0.06450008 0.06008169
vt -0.06344808 0.05906491
vt -0.03332735 0.08880879
vt -0.03435551 0.08980142
vt -0.06198773 0.03233403
vt -0.06058948 0.03153928
vt -0.03889656 0.06788994
vt -0.04040721 0.06875198
vt 0.04195064 0.05935816
vt 0.04585024 0.06552508
vt 0.01008948 0.08817736
vt 0.006009036 0.08172442
o group1207607877
g mesh1207607877
usemtl mat16
f 68/284/85 67/283/85 66/282/85 65/281/85
f 72/288/86 71/287/86 70/286/86 69/285/86
f 66/292/87 72/291/87 69/290/87 65/289/87
f 77/297/88 76/296/88 75/295/88 74/294/88 73/293/88
f 80/302/89 79/301/89 78/300/89 68/299/89 65/298/89
f 67/306/90 71/305/90 72/304/90 66/303/90
f 83/311/91 82/310/91 81/309/91 77/308/91 73/307/91
f 86/315/92 85/314/92 84/313/92 76/312/92
f 87/319/93 80/318/93 65/317/93 69/316/93
f 87/323/94 88/322/94 79/321/94 80/320/94
f 90/327/95 82/326/95 83/325/95 89/324/95
f 89/331/96 83/330/96 73/329/96 91/328/96
f 91/335/97 73/334/97 74/333/97 92/332/97
f 92/339/98 74/338/98 75/337/98 93/336/98
f 93/343/99 75/342/99 76/341/99 84/340/99
f 85/350/100 97/349/100 96/348/100 95/347/100 94/346/100 70/345/100 84/344/100
f 94/354/101 95/353/101 98/352/101 78/351/101
f 78/361/102 98/360/102 100/359/102 99/358/102 89/357/102 91/356/102 68/355/102
f 68/365/103 91/364/103 92/363/103 67/362/103
f 67/369/104 92/368/104 93/367/104 71/366/104
f 71/373/105 93/372/105 84/371/105 70/370/105
f 94/378/106 88/377/106 87/376/106 69/375/106 70/374/106
f 103/382/107 102/381/107 101/380/107 81/379/107
f 81/387/108 101/386/108 86/385/108 76/384/108 77/383/108
f 90/391/109 103/390/109 81/389/109 82/388/109
f 102/395/110 85/394/110 86/393/110 101/392/110
f 97/402/111 85/401/111 102/400/111 103/399/111 90/398/111 89/397/111 99/396/111
f 96/406/112 97/405/112 99/404/112 100/403/112
f 88/410/113 94/409/113 78/408/113 79/407/113
f 95/414/114 96/413/114 100/412/114 98/411/114
o group1076759998
g mesh1076759998
usemtl mat15
f 3/3/1 2/2/1 1/1/1
f 6/7/2 5/6/2 4/5/2 2/4/2
f 5/11/3 8/10/3 7/9/3 4/8/3
f 8/15/4 3/14/4 1/13/4 7/12/4
f 8/18/5 5/17/5 9/16/5
f 1/22/6 2/21/6 4/20/6 7/19/6
f 5/26/7 6/25/7 10/24/7 9/23/7
f 6/29/8 3/28/8 11/27/8
f 3/32/9 8/31/9 12/30/9
f 12/35/10 9/34/10 13/33/10
f 9/38/11 12/37/11 8/36/11
f 11/41/12 10/40/12 6/39/12
f 9/45/13 10/44/13 14/43/13 13/42/13
f 10/49/14 11/48/14 15/47/14 14/46/14
f 11/52/15 12/51/15 15/50/15
f 13/55/16 14/54/16 15/53/16
f 13/58/17 16/57/17 12/56/17
f 12/61/18 16/60/18 15/59/18
f 12/64/19 11/63/19 3/62/19
f 3/67/20 6/66/20 2/65/20
f 15/70/21 16/69/21 13/68/21
o group1726520313
g mesh1726520313
usemtl mat15
f 19/73/22 18/72/22 17/71/22
f 18/77/23 22/76/23 21/75/23 20/74/23
f 22/81/24 24/80/24 23/79/24 21/78/24
f 24/85/25 19/84/25 17/83/25 23/82/25
f 25/88/26 21/87/26 23/86/26
f 24/92/27 22/91/27 18/90/27 19/89/27
f 25/96/28 26/95/28 20/94/28 21/93/28
f 27/99/29 17/98/29 20/97/29
f 28/102/30 23/101/30 17/100/30
f 29/105/31 25/104/31 28/103/31
f 23/108/32 28/107/32 25/106/32
f 20/111/33 26/110/33 27/109/33
f 29/115/34 30/114/34 26/113/34 25/112/34
f 30/119/35 31/118/35 27/117/35 26/116/35
f 31/122/36 28/121/36 27/120/36
f 31/125/37 30/124/37 29/123/37
f 28/128/38 32/127/38 29/126/38
f 31/131/39 32/130/39 28/129/39
f 17/134/40 27/133/40 28/132/40
f 18/137/41 20/136/41 17/135/41
f 29/140/42 32/139/42 31/138/42
o group1076083137
g mesh1076083137
usemtl mat15
f 35/143/43 34/142/43 33/141/43
f 38/147/44 37/146/44 36/145/44 34/144/44
f 37/151/45 40/150/45 39/149/45 36/148/45
f 40/155/46 35/154/46 33/153/46 39/152/46
f 40/158/47 37/157/47 41/156/47
f 33/162/48 34/161/48 36/160/48 39/159/48
f 37/166/49 38/165/49 42/164/49 41/163/49
f 38/169/50 35/168/50 43/167/50
f 35/172/51 40/171/51 44/170/51
f 44/175/52 41/174/52 45/173/52
f 41/178/53 44/177/53 40/176/53
f 43/181/54 42/180/54 38/179/54
f 41/185/55 42/184/55 46/183/55 45/182/55
f 42/189/56 43/188/56 47/187/56 46/186/56
f 43/192/57 44/191/57 47/190/57
f 45/195/58 46/194/58 47/193/58
f 45/198/59 48/197/59 44/196/59
f 44/201/60 48/200/60 47/199/60
f 44/204/61 43/203/61 35/202/61
f 35/207/62 38/206/62 34/205/62
f 47/210/63 48/209/63 45/208/63
o group1025514721
g mesh1025514721
usemtl mat15
f 51/213/64 50/212/64 49/211/64
f 54/217/65 53/216/65 52/215/65 50/214/65
f 53/221/66 56/220/66 55/219/66 52/218/66
f 56/225/67 51/224/67 49/223/67 55/222/67
f 56/228/68 53/227/68 57/226/68
f 49/232/69 50/231/69 52/230/69 55/229/69
f 53/236/70 54/235/70 58/234/70 57/233/70
f 54/239/71 51/238/71 59/237/71
f 51/242/72 56/241/72 60/240/72
f 60/245/73 57/244/73 61/243/73
f 57/248/74 60/247/74 56/246/74
f 59/251/75 58/250/75 54/249/75
f 57/255/76 58/254/76 62/253/76 61/252/76
f 58/259/77 59/258/77 63/257/77 62/256/77
f 59/262/78 60/261/78 63/260/78
f 61/265/79 62/264/79 63/263/79
f 61/268/80 64/267/80 60/266/80
f 60/271/81 64/270/81 63/269/81
f 60/274/82 59/273/82 51/272/82
f 51/277/83 54/276/83 50/275/83
f 63/280/84 64/279/84 61/278/84
